<svg xmlns="http://www.w3.org/2000/svg" width="648" height="244" viewBox="0 0 648 244">
  <g id="Group_1" data-name="Group 1" transform="translate(-679 -370)">
    <text id="Neem_de_1ste_hartslagmeter." data-name="Neem de 1ste hartslagmeter." transform="translate(719 400)" fill="#707070" font-size="32" font-family="Neucha"><tspan x="0" y="0">Neem de 1ste hartslagmeter.</tspan></text>
    <text id="Druk_1_keer_op_het_knopje_van_de_hartslagmeter." data-name="Druk 1 keer op het knopje van de hartslagmeter." transform="translate(719 451)" fill="#707070" font-size="32" font-family="Neucha"><tspan x="0" y="0">Druk 1 keer op het knopje van de hartslagmeter.</tspan></text>
    <text id="Zet_Bluetooth" data-name="Zet Bluetooth" transform="translate(719 503)" fill="#707070" font-size="32" font-family="Neucha"><tspan x="0" y="0">Zet Bluetooth</tspan></text>
    <text id="Druk_op_Verbind_speler_1_." data-name="Druk op &quot;Verbind speler 1&quot;." transform="translate(719 554)" fill="#707070" font-size="32" font-family="Neucha"><tspan x="0" y="0">Druk op &quot;Verbind speler 1&quot;.</tspan></text>
    <text id="Klik_op_de_hartslagmeter" data-name="Klik op de hartslagmeter" transform="translate(719 605)" fill="#707070" font-size="32" font-family="Neucha"><tspan x="0" y="0">Klik op de hartslagmeter</tspan></text>
    <g id="Watch" transform="translate(1058 378)">
      <path id="Path_2" data-name="Path 2" d="M0,0H24V24H0Z" fill="none"/>
      <path id="Path_3" data-name="Path 3" d="M14.31,2l.41,2.48A7.9,7.9,0,0,0,12,4a8.078,8.078,0,0,0-2.71.47L9.7,2h4.61m.41,17.52L14.31,22H9.7l-.41-2.47A8.078,8.078,0,0,0,12,20a7.9,7.9,0,0,0,2.72-.48M16,0H8L7.05,5.73a7.97,7.97,0,0,0,0,12.54L8,24h8l.96-5.73a7.986,7.986,0,0,0,0-12.54ZM12,18a6,6,0,1,1,6-6A6,6,0,0,1,12,18Z" fill="#707070"/>
    </g>
    <g id="Watch-2" data-name="Watch" transform="translate(1288 429)">
      <path id="Path_2-2" data-name="Path 2" d="M0,0H24V24H0Z" fill="none"/>
      <path id="Path_3-2" data-name="Path 3" d="M14.31,2l.41,2.48A7.9,7.9,0,0,0,12,4a8.078,8.078,0,0,0-2.71.47L9.7,2h4.61m.41,17.52L14.31,22H9.7l-.41-2.47A8.078,8.078,0,0,0,12,20a7.9,7.9,0,0,0,2.72-.48M16,0H8L7.05,5.73a7.97,7.97,0,0,0,0,12.54L8,24h8l.96-5.73a7.986,7.986,0,0,0,0-12.54ZM12,18a6,6,0,1,1,6-6A6,6,0,0,1,12,18Z" fill="#707070"/>
    </g>
    <text id="aan_op_je_laptop." data-name="aan op je laptop." transform="translate(920 502)" fill="#707070" font-size="32" font-family="Neucha"><tspan x="0" y="0">aan op je laptop.</tspan></text>
    <g id="Bluetooth" transform="translate(888 478)">
      <path id="Path_4" data-name="Path 4" d="M0,0H24V24H0Z" fill="none"/>
      <path id="Path_5" data-name="Path 5" d="M17.71,7.71,12,2H11V9.59L6.41,5,5,6.41,10.59,12,5,17.59,6.41,19,11,14.41V22h1l5.71-5.71L13.41,12l4.3-4.29ZM13,5.83l1.88,1.88L13,9.59Zm1.88,10.46L13,18.17V14.41l1.88,1.88Z" fill="#707070"/>
    </g>
    <path id="Laptop" d="M20,18a2.006,2.006,0,0,0,2-2V6a2.006,2.006,0,0,0-2-2H4A2.006,2.006,0,0,0,2,6V16a2.006,2.006,0,0,0,2,2H0v2H24V18ZM4,6H20V16H4Z" transform="translate(1117 480)" fill="#707070"/>
    <text id="en_daarna_op_Koppelen_." data-name="en daarna op &quot;Koppelen&quot;." transform="translate(1043 605)" fill="#707070" font-size="32" font-family="Neucha"><tspan x="0" y="0">en daarna op &quot;Koppelen&quot;.</tspan></text>
    <g id="Watch-3" data-name="Watch" transform="translate(1011 583)">
      <path id="Path_2-3" data-name="Path 2" d="M0,0H24V24H0Z" fill="none"/>
      <path id="Path_3-3" data-name="Path 3" d="M14.31,2l.41,2.48A7.9,7.9,0,0,0,12,4a8.078,8.078,0,0,0-2.71.47L9.7,2h4.61m.41,17.52L14.31,22H9.7l-.41-2.47A8.078,8.078,0,0,0,12,20a7.9,7.9,0,0,0,2.72-.48M16,0H8L7.05,5.73a7.97,7.97,0,0,0,0,12.54L8,24h8l.96-5.73a7.986,7.986,0,0,0,0-12.54ZM12,18a6,6,0,1,1,6-6A6,6,0,0,1,12,18Z" fill="#707070"/>
    </g>
    <g id="One" transform="translate(679 372)">
      <path id="Path_6" data-name="Path 6" d="M0,0H32V32H0Z" fill="none"/>
      <path id="Path_7" data-name="Path 7" d="M26.111,3H5.889A2.9,2.9,0,0,0,3,5.889V26.111A2.9,2.9,0,0,0,5.889,29H26.111A2.9,2.9,0,0,0,29,26.111V5.889A2.9,2.9,0,0,0,26.111,3ZM17.444,23.222A1.449,1.449,0,0,1,16,21.778V11.667H14.556a1.444,1.444,0,0,1,0-2.889h2.889a1.449,1.449,0,0,1,1.444,1.444V21.778A1.449,1.449,0,0,1,17.444,23.222Z" transform="translate(0 0)" fill="#fbdb86"/>
    </g>
    <g id="Two" transform="translate(679 423)">
      <path id="Path_8" data-name="Path 8" d="M0,0H32V32H0Z" fill="none"/>
      <path id="Path_9" data-name="Path 9" d="M26.111,3H5.889A2.9,2.9,0,0,0,3,5.889V26.111A2.9,2.9,0,0,0,5.889,29H26.111A2.9,2.9,0,0,0,29,26.111V5.889A2.9,2.9,0,0,0,26.111,3ZM20.333,14.556a2.9,2.9,0,0,1-2.889,2.889H14.556v2.889h4.333a1.444,1.444,0,1,1,0,2.889H13.111a1.449,1.449,0,0,1-1.444-1.444V17.444a2.9,2.9,0,0,1,2.889-2.889h2.889V11.667H13.111a1.444,1.444,0,1,1,0-2.889h4.333a2.9,2.9,0,0,1,2.889,2.889Z" transform="translate(0 0)" fill="#96c2e5"/>
    </g>
    <g id="Three" transform="translate(679 474)">
      <path id="Path_10" data-name="Path 10" d="M0,0H32V32H0Z" fill="none"/>
      <path id="Path_11" data-name="Path 11" d="M26.111,3H5.9A2.9,2.9,0,0,0,3.01,5.889V26.111A2.9,2.9,0,0,0,5.9,29H26.111A2.9,2.9,0,0,0,29,26.111V5.889A2.9,2.9,0,0,0,26.111,3ZM20.346,13.833A2.164,2.164,0,0,1,18.179,16a2.164,2.164,0,0,1,2.167,2.167v2.167a2.888,2.888,0,0,1-2.889,2.889H13.108a1.444,1.444,0,1,1,0-2.889h4.349l-.014-2.889H16a1.444,1.444,0,1,1,0-2.889h1.445l.014-2.889H13.108a1.445,1.445,0,0,1,0-2.889h4.349a2.9,2.9,0,0,1,2.889,2.889Z" transform="translate(0 0)" fill="#e5c9ef"/>
    </g>
    <g id="Four" transform="translate(678.96 525)">
      <path id="Path_12" data-name="Path 12" d="M.04,0h32V32H.04V0Z" transform="translate(0)" fill="none"/>
      <path id="Path_13" data-name="Path 13" d="M26.151,3H5.929A2.9,2.9,0,0,0,3.04,5.889V26.111A2.9,2.9,0,0,0,5.929,29H26.151a2.9,2.9,0,0,0,2.889-2.889V5.889A2.9,2.9,0,0,0,26.151,3ZM18.929,23.222a1.449,1.449,0,0,1-1.444-1.444V17.444H13.151A1.449,1.449,0,0,1,11.707,16V10.222a1.444,1.444,0,1,1,2.889,0v4.333h2.889V10.222a1.444,1.444,0,0,1,2.889,0V21.778A1.449,1.449,0,0,1,18.929,23.222Z" transform="translate(0 0)" fill="#96c2e5"/>
    </g>
    <g id="Five" transform="translate(679 576)">
      <path id="Path_14" data-name="Path 14" d="M0,0H32V32H0Z" fill="none"/>
      <path id="Path_15" data-name="Path 15" d="M26.111,3H5.889A2.9,2.9,0,0,0,3,5.889V26.111A2.9,2.9,0,0,0,5.889,29H26.111A2.9,2.9,0,0,0,29,26.111V5.889A2.9,2.9,0,0,0,26.111,3Zm-7.222,8.667H14.556v2.889h2.889a2.9,2.9,0,0,1,2.889,2.889v2.889a2.888,2.888,0,0,1-2.889,2.889H13.111a1.444,1.444,0,1,1,0-2.889h4.333V17.444H13.111A1.449,1.449,0,0,1,11.667,16V10.222a1.449,1.449,0,0,1,1.444-1.444h5.778a1.444,1.444,0,0,1,0,2.889Z" transform="translate(0 0)" fill="#fbdb86"/>
    </g>
  </g>
</svg>
